# xmcd
# 
# Track frame offsets:
#     150
#     22935
#     38812
#     63610
# 
# Disc length: 1176
# 
# Revision: 0
# Processed by: cddbd v1.5.2PL0 Copyright (c) Steve Scherf et al.
# Submitted via: BonkEnc v1.0
# 
DISCID=2b049604
DTITLE=山根康広 - single
DYEAR=0
DGENRE=
TTITLE0=Yellを君に(Single version)
TTITLE1=Final Chance
TTITLE2=Yellを君に(Bonus Track)
TTITLE3=Yellを君に(Bonus Track-Karaoke)
EXTD=
EXTT0=
EXTT1=
EXTT2=
EXTT3=
PLAYORDER=
